<?xml version="1.0" encoding="UTF-8"?>
<svg width="300" height="300" viewBox="0 0 300 300" xmlns="http://www.w3.org/2000/svg">
  <!-- Background -->
  <rect width="300" height="300" rx="20" fill="#ecf0f1" />
  
  <!-- Chessboard Pattern -->
  <g transform="translate(50, 50)">
    <!-- Board squares -->
    <rect width="200" height="200" fill="#ecf0f1" stroke="#2c3e50" stroke-width="3" />
    
    <!-- Dark squares -->
    <rect x="0" y="0" width="25" height="25" fill="#34495e" />
    <rect x="50" y="0" width="25" height="25" fill="#34495e" />
    <rect x="100" y="0" width="25" height="25" fill="#34495e" />
    <rect x="150" y="0" width="25" height="25" fill="#34495e" />
    
    <rect x="25" y="25" width="25" height="25" fill="#34495e" />
    <rect x="75" y="25" width="25" height="25" fill="#34495e" />
    <rect x="125" y="25" width="25" height="25" fill="#34495e" />
    <rect x="175" y="25" width="25" height="25" fill="#34495e" />
    
    <rect x="0" y="50" width="25" height="25" fill="#34495e" />
    <rect x="50" y="50" width="25" height="25" fill="#34495e" />
    <rect x="100" y="50" width="25" height="25" fill="#34495e" />
    <rect x="150" y="50" width="25" height="25" fill="#34495e" />
    
    <rect x="25" y="75" width="25" height="25" fill="#34495e" />
    <rect x="75" y="75" width="25" height="25" fill="#34495e" />
    <rect x="125" y="75" width="25" height="25" fill="#34495e" />
    <rect x="175" y="75" width="25" height="25" fill="#34495e" />
    
    <rect x="0" y="100" width="25" height="25" fill="#34495e" />
    <rect x="50" y="100" width="25" height="25" fill="#34495e" />
    <rect x="100" y="100" width="25" height="25" fill="#34495e" />
    <rect x="150" y="100" width="25" height="25" fill="#34495e" />
    
    <rect x="25" y="125" width="25" height="25" fill="#34495e" />
    <rect x="75" y="125" width="25" height="25" fill="#34495e" />
    <rect x="125" y="125" width="25" height="25" fill="#34495e" />
    <rect x="175" y="125" width="25" height="25" fill="#34495e" />
    
    <rect x="0" y="150" width="25" height="25" fill="#34495e" />
    <rect x="50" y="150" width="25" height="25" fill="#34495e" />
    <rect x="100" y="150" width="25" height="25" fill="#34495e" />
    <rect x="150" y="150" width="25" height="25" fill="#34495e" />
    
    <rect x="25" y="175" width="25" height="25" fill="#34495e" />
    <rect x="75" y="175" width="25" height="25" fill="#34495e" />
    <rect x="125" y="175" width="25" height="25" fill="#34495e" />
    <rect x="175" y="175" width="25" height="25" fill="#34495e" />
    
    <!-- Chess pieces -->
    <!-- White Pieces -->
    <!-- Pawns -->
    <g transform="translate(12.5, 162.5)">
      <circle cx="0" cy="0" r="8" fill="#fff" stroke="#2c3e50" stroke-width="1.5" />
    </g>
    <g transform="translate(37.5, 162.5)">
      <circle cx="0" cy="0" r="8" fill="#fff" stroke="#2c3e50" stroke-width="1.5" />
    </g>
    <g transform="translate(87.5, 162.5)">
      <circle cx="0" cy="0" r="8" fill="#fff" stroke="#2c3e50" stroke-width="1.5" />
    </g>
    
    <!-- Rook -->
    <g transform="translate(12.5, 187.5)">
      <rect x="-6" y="-8" width="12" height="16" fill="#fff" stroke="#2c3e50" stroke-width="1.5" />
      <path d="M-6,-8 L-4,-12 L4,-12 L6,-8" fill="#fff" stroke="#2c3e50" stroke-width="1.5" />
    </g>
    
    <!-- Knight -->
    <g transform="translate(37.5, 187.5)">
      <path d="M-5,-5 C-3,-10 3,-10 5,-7 C7,-4 5,2 0,5 L-7,5 L-7,-3 Z" fill="#fff" stroke="#2c3e50" stroke-width="1.5" />
      <circle cx="2" cy="-4" r="1" fill="#2c3e50" />
    </g>
    
    <!-- Queen -->
    <g transform="translate(112.5, 187.5)">
      <circle cx="0" cy="0" r="8" fill="#fff" stroke="#2c3e50" stroke-width="1.5" />
      <circle cx="0" cy="-5" r="1.5" fill="#2c3e50" />
      <circle cx="5" cy="0" r="1.5" fill="#2c3e50" />
      <circle cx="0" cy="5" r="1.5" fill="#2c3e50" />
      <circle cx="-5" cy="0" r="1.5" fill="#2c3e50" />
      <circle cx="3.5" cy="-3.5" r="1.5" fill="#2c3e50" />
      <circle cx="3.5" cy="3.5" r="1.5" fill="#2c3e50" />
      <circle cx="-3.5" cy="3.5" r="1.5" fill="#2c3e50" />
      <circle cx="-3.5" cy="-3.5" r="1.5" fill="#2c3e50" />
    </g>
    
    <!-- King -->
    <g transform="translate(137.5, 187.5)">
      <circle cx="0" cy="0" r="8" fill="#fff" stroke="#2c3e50" stroke-width="1.5" />
      <path d="M0,-10 L0,-5 M-5,0 L5,0" stroke="#2c3e50" stroke-width="2" />
    </g>
    
    <!-- Black Pieces -->
    <!-- Pawns -->
    <g transform="translate(112.5, 37.5)">
      <circle cx="0" cy="0" r="8" fill="#2c3e50" stroke="#2c3e50" stroke-width="1.5" />
    </g>
    <g transform="translate(137.5, 37.5)">
      <circle cx="0" cy="0" r="8" fill="#2c3e50" stroke="#2c3e50" stroke-width="1.5" />
    </g>
    <g transform="translate(162.5, 37.5)">
      <circle cx="0" cy="0" r="8" fill="#2c3e50" stroke="#2c3e50" stroke-width="1.5" />
    </g>
    
    <!-- Queen -->
    <g transform="translate(112.5, 12.5)">
      <circle cx="0" cy="0" r="8" fill="#2c3e50" stroke="#2c3e50" stroke-width="1.5" />
      <circle cx="0" cy="-5" r="1.5" fill="#ecf0f1" />
      <circle cx="5" cy="0" r="1.5" fill="#ecf0f1" />
      <circle cx="0" cy="5" r="1.5" fill="#ecf0f1" />
      <circle cx="-5" cy="0" r="1.5" fill="#ecf0f1" />
      <circle cx="3.5" cy="-3.5" r="1.5" fill="#ecf0f1" />
      <circle cx="3.5" cy="3.5" r="1.5" fill="#ecf0f1" />
      <circle cx="-3.5" cy="3.5" r="1.5" fill="#ecf0f1" />
      <circle cx="-3.5" cy="-3.5" r="1.5" fill="#ecf0f1" />
    </g>
    
    <!-- King -->
    <g transform="translate(137.5, 12.5)">
      <circle cx="0" cy="0" r="8" fill="#2c3e50" stroke="#2c3e50" stroke-width="1.5" />
      <path d="M0,-10 L0,-5 M-5,0 L5,0" stroke="#ecf0f1" stroke-width="2" />
    </g>
  </g>
  
  <!-- Game Timer -->
  <rect x="30" y="10" width="80" height="30" rx="5" fill="#2c3e50" />
  <text x="70" y="30" font-family="Arial, sans-serif" font-weight="bold" font-size="14" text-anchor="middle" fill="white">12:34</text>
  
  <rect x="190" y="10" width="80" height="30" rx="5" fill="#2c3e50" />
  <text x="230" y="30" font-family="Arial, sans-serif" font-weight="bold" font-size="14" text-anchor="middle" fill="white">10:17</text>
  
  <!-- Last move -->
  <rect x="175" y="162.5" width="25" height="25" fill="#f39c12" opacity="0.5" />
  <rect x="175" y="137.5" width="25" height="25" fill="#f39c12" opacity="0.3" />
  
  <!-- Title -->
  <rect x="20" y="260" width="260" height="30" rx="5" fill="#2c3e50" />
  <text x="150" y="282" font-family="Arial, sans-serif" font-weight="bold" font-size="20" text-anchor="middle" fill="white">SIMPLE CHESS AI</text>
</svg>